<svg role="img" viewBox="0 0 24 24" xmlns="http://www.w3.org/2000/svg"><title>Design Patterns</title><path d="M4.5 3a1.5 1.5 0 1 0 0 3 1.5 1.5 0 0 0 0-3zm7.5 0a1.5 1.5 0 1 0 0 3 1.5 1.5 0 0 0 0-3zm7.5 0a1.5 1.5 0 1 0 0 3 1.5 1.5 0 0 0 0-3zM4.5 10.5a1.5 1.5 0 1 0 0 3 1.5 1.5 0 0 0 0-3zm7.5 0a1.5 1.5 0 1 0 0 3 1.5 1.5 0 0 0 0-3zm7.5 0a1.5 1.5 0 1 0 0 3 1.5 1.5 0 0 0 0-3zM4.5 18a1.5 1.5 0 1 0 0 3 1.5 1.5 0 0 0 0-3zm7.5 0a1.5 1.5 0 1 0 0 3 1.5 1.5 0 0 0 0-3zm7.5 0a1.5 1.5 0 1 0 0 3 1.5 1.5 0 0 0 0-3z"/></svg>
