<svg role="img" viewBox="0 0 24 24" xmlns="http://www.w3.org/2000/svg"><title>Zustand</title><path d="M7.5 2a2 2 0 0 0-2 2 2 2 0 0 0 1.1 1.78C5.1 7.1 4 9.4 4 12a8 8 0 0 0 16 0c0-2.6-1.1-4.9-2.6-6.22A2 2 0 0 0 18.5 4a2 2 0 0 0-2 2 2 2 0 0 0 .05.4A7.2 7.2 0 0 0 12 5a7.2 7.2 0 0 0-4.55 1.4A2 2 0 0 0 7.5 6a2 2 0 0 0-2-2 2 2 0 0 0 2-2zM9 13a1.5 1.5 0 0 1 1.5 1.5A1.5 1.5 0 0 1 9 16a1.5 1.5 0 0 1-1.5-1.5A1.5 1.5 0 0 1 9 13zm6 0a1.5 1.5 0 0 1 1.5 1.5A1.5 1.5 0 0 1 15 16a1.5 1.5 0 0 1-1.5-1.5A1.5 1.5 0 0 1 15 13zm-3 4c1.1 0 2 .4 2 1s-.9 1-2 1-2-.4-2-1 .9-1 2-1z"/></svg>
